<svg width="20" height="20" viewBox="0 0 20 20" fill="none" xmlns="http://www.w3.org/2000/svg">
<path d="M13.4525 1.66667L18.3333 6.54833V13.4517L13.4525 18.3333H6.5475L1.66667 13.4517V6.54833L6.5475 1.66667H13.4525ZM14.1425 0H5.8575L0 5.8575V14.1417L5.8575 20H14.1417L20 14.1425V5.8575L14.1425 0ZM8.90833 6.27167C8.82583 5.59917 9.34833 5 10.0317 5C10.6742 5 11.1792 5.56333 11.0983 6.20917L10.4675 11.2533C10.4383 11.4892 10.2375 11.6667 10 11.6667C9.7625 11.6667 9.56167 11.4892 9.53167 11.2533L8.90833 6.27167ZM10 15.2083C9.425 15.2083 8.95833 14.7417 8.95833 14.1667C8.95833 13.5917 9.425 13.125 10 13.125C10.575 13.125 11.0417 13.5917 11.0417 14.1667C11.0417 14.7417 10.575 15.2083 10 15.2083Z" fill="#83612E"/>
</svg>
