<svg width="44" height="42" viewBox="0 0 44 42" fill="none" xmlns="http://www.w3.org/2000/svg">
<path d="M21.7111 20.9329C25.6453 20.9329 28.8347 17.7838 28.8347 13.8993C28.8347 10.0148 25.6453 6.86572 21.7111 6.86572C17.7768 6.86572 14.5874 10.0148 14.5874 13.8993C14.5874 17.7838 17.7768 20.9329 21.7111 20.9329Z" stroke="black" stroke-linecap="round" stroke-linejoin="round"/>
<path d="M22.0004 27.0935L12.8875 41.0264C12.861 41.0765 12.819 41.1172 12.7677 41.1424C12.7164 41.1677 12.6583 41.1763 12.6017 41.1669C12.5451 41.1576 12.493 41.1309 12.4527 41.0906C12.4124 41.0503 12.3861 40.9984 12.3775 40.9424L10.4223 32.163C10.4144 32.1272 10.3992 32.0933 10.3775 32.0635C10.3559 32.0337 10.3283 32.0086 10.2964 31.9897C10.2646 31.9708 10.2291 31.9586 10.1923 31.9538C10.1555 31.9489 10.118 31.9516 10.0823 31.9616L1.19047 33.8921C1.13589 33.9066 1.07808 33.904 1.02508 33.8845C0.972081 33.8651 0.926523 33.8299 0.894737 33.7838C0.86295 33.7376 0.846516 33.6828 0.847718 33.627C0.848919 33.5712 0.867697 33.5172 0.901441 33.4724L9.70824 19.6067" stroke="black" stroke-miterlimit="10" stroke-linecap="round"/>
<path d="M21.7112 27.0936C29.054 27.0936 35.0064 21.2163 35.0064 13.9665C35.0064 6.71656 29.054 0.839355 21.7112 0.839355C14.3685 0.839355 8.41602 6.71656 8.41602 13.9665C8.41602 21.2163 14.3685 27.0936 21.7112 27.0936Z" stroke="black" stroke-linecap="round" stroke-linejoin="round"/>
<path d="M22 27.0935L31.1128 41.0264C31.1394 41.0766 31.1813 41.1172 31.2327 41.1425C31.284 41.1677 31.3421 41.1763 31.3987 41.167C31.4552 41.1577 31.5074 41.131 31.5477 41.0906C31.5879 41.0503 31.6142 40.9984 31.6229 40.9425L33.5781 32.1631C33.5859 32.1272 33.6012 32.0934 33.6228 32.0635C33.6445 32.0337 33.6721 32.0086 33.7039 31.9897C33.7358 31.9709 33.7712 31.9586 33.8081 31.9538C33.8449 31.949 33.8823 31.9516 33.9181 31.9617L42.8099 33.8921C42.8645 33.9066 42.9223 33.904 42.9753 33.8846C43.0283 33.8652 43.0738 33.83 43.1056 33.7838C43.1374 33.7376 43.1538 33.6829 43.1526 33.6271C43.1514 33.5713 43.1327 33.5172 43.0989 33.4724L33.9011 19.2039" stroke="black" stroke-miterlimit="10" stroke-linecap="round"/>
</svg>
