<svg width="80" height="80" viewBox="0 0 80 80" fill="none" xmlns="http://www.w3.org/2000/svg">
<circle cx="40" cy="40" r="39" stroke="#1F2325" stroke-width="2"/>
<path d="M41.4734 24.1894C41.4734 25.2753 41.042 26.3168 40.2741 27.0847C39.5062 27.8526 38.4647 28.284 37.3787 28.284C36.2927 28.284 35.2512 27.8526 34.4833 27.0847C33.7154 26.3168 33.284 25.2753 33.284 24.1894C33.284 20.0947 37.3787 16 37.3787 16C37.3787 16 41.4734 20.0947 41.4734 24.1894Z" stroke="black" stroke-width="1.91" stroke-miterlimit="10"/>
<path d="M37.3787 28.2839V34.4152" stroke="black" stroke-width="1.91" stroke-miterlimit="10"/>
<path d="M47.6047 34.4153H27.1313V52.8306H47.6047V34.4153Z" stroke="black" stroke-width="1.91" stroke-miterlimit="10"/>
<path d="M21 52.8308H53.736C53.7362 54.9843 52.8881 57.0512 51.3754 58.584C49.8627 60.1167 47.8071 60.992 45.6538 61.0202H29.1894C27.0174 61.0202 24.9344 60.1574 23.3986 58.6216C21.8628 57.0858 21 55.0028 21 52.8308Z" stroke="black" stroke-width="1.91" stroke-miterlimit="10"/>
<path d="M59.8887 58.9618C63.2749 58.9618 66.02 56.2167 66.02 52.8305C66.02 49.4443 63.2749 46.6992 59.8887 46.6992C56.5025 46.6992 53.7574 49.4443 53.7574 52.8305C53.7574 56.2167 56.5025 58.9618 59.8887 58.9618Z" stroke="black" stroke-width="1.91" stroke-miterlimit="10"/>
</svg>
