<svg width="18" height="18" viewBox="0 0 18 18" fill="none" xmlns="http://www.w3.org/2000/svg">
<g clip-path="url(#clip0_230_12)">
<path d="M9 1.5C11.0677 1.5 12.75 3.18225 12.75 5.25075C12.75 7.31775 11.0677 9.00075 9 9.00075C6.93225 9.00075 5.25 7.31775 5.25 5.25075C5.25 3.18225 6.93225 1.5 9 1.5ZM9 0C6.1005 0 3.75 2.3505 3.75 5.25075C3.75 8.1495 6.1005 10.5008 9 10.5008C11.8995 10.5008 14.25 8.1495 14.25 5.25075C14.25 2.3505 11.8995 0 9 0V0ZM13.7767 10.0147C13.404 10.3882 12.984 10.713 12.5333 10.9913C14.6873 12.3967 15.8168 14.8035 16.2623 16.5007H1.722C2.151 14.7832 3.2655 12.3735 5.45175 10.9823C4.9995 10.7017 4.58025 10.374 4.20825 9.99825C1.01475 12.3022 0 16.3778 0 18H18C18 16.3935 16.92 12.3322 13.7767 10.0147Z" fill="#6D6762"/>
</g>
<defs>
<clipPath id="clip0_230_12">
<rect width="18" height="18" fill="white"/>
</clipPath>
</defs>
</svg>
