<svg width="44" height="40" viewBox="0 0 44 40" fill="none" xmlns="http://www.w3.org/2000/svg">
<path d="M15.0457 8.58691L10.6992 8.60359" stroke="black" stroke-miterlimit="10" stroke-linecap="round"/>
<path d="M0.835938 0.833569H7.15509C7.86597 0.814447 8.55899 1.05722 9.10175 1.51551C9.6445 1.97381 9.99894 2.61548 10.0973 3.31794L12.8223 25.1604C12.9153 25.8559 13.2578 26.4942 13.7865 26.9571C14.3152 27.42 14.9941 27.6762 15.6976 27.6781H32.0472C32.6374 27.6772 33.2133 27.4962 33.6974 27.1594C34.1815 26.8226 34.5507 26.3461 34.7554 25.794L36.0092 22.4592" stroke="black" stroke-miterlimit="10" stroke-linecap="round"/>
<path d="M32.1638 39.1664C33.9734 39.1664 35.4404 37.7033 35.4404 35.8984C35.4404 34.0935 33.9734 32.6304 32.1638 32.6304C30.3542 32.6304 28.8872 34.0935 28.8872 35.8984C28.8872 37.7033 30.3542 39.1664 32.1638 39.1664Z" stroke="black" stroke-miterlimit="10" stroke-linecap="round"/>
<path d="M15.0456 39.1664C16.8553 39.1664 18.3222 37.7033 18.3222 35.8984C18.3222 34.0935 16.8553 32.6304 15.0456 32.6304C13.236 32.6304 11.769 34.0935 11.769 35.8984C11.769 37.7033 13.236 39.1664 15.0456 39.1664Z" stroke="black" stroke-miterlimit="10" stroke-linecap="round"/>
<path d="M23.0195 18.4243C24.3029 18.4243 25.3432 17.3867 25.3432 16.1067C25.3432 14.8267 24.3029 13.7891 23.0195 13.7891C21.7362 13.7891 20.6958 14.8267 20.6958 16.1067C20.6958 17.3867 21.7362 18.4243 23.0195 18.4243Z" stroke="black" stroke-miterlimit="10" stroke-linecap="round"/>
<path d="M38.9345 18.4243C40.2179 18.4243 41.2583 17.3867 41.2583 16.1067C41.2583 14.8267 40.2179 13.7891 38.9345 13.7891C37.6512 13.7891 36.6108 14.8267 36.6108 16.1067C36.6108 17.3867 37.6512 18.4243 38.9345 18.4243Z" stroke="black" stroke-miterlimit="10" stroke-linecap="round"/>
<path d="M36.6108 3.63477V9.03702C36.6108 9.26697 36.7024 9.4875 36.8655 9.6501C37.0285 9.8127 37.2496 9.90404 37.4801 9.90404H43.1139" stroke="black" stroke-miterlimit="10" stroke-linecap="round"/>
<path d="M20.696 16.1567H19.3753C19.352 16.159 19.3284 16.1565 19.3062 16.1491C19.2839 16.1418 19.2635 16.1299 19.2461 16.1142C19.2288 16.0984 19.215 16.0793 19.2055 16.0579C19.1961 16.0365 19.1913 16.0133 19.1914 15.99V3.80154C19.1956 3.75584 19.2168 3.71337 19.2508 3.6825C19.2849 3.65163 19.3293 3.63462 19.3753 3.63481H37.7644C37.8967 3.63351 38.0276 3.66297 38.1465 3.72085C38.2655 3.77873 38.3693 3.86344 38.4498 3.96828L42.9802 9.67066C43.0994 9.82309 43.1641 10.0109 43.1641 10.2042V15.99C43.1667 16.0125 43.1643 16.0354 43.1568 16.0568C43.1494 16.0783 43.1371 16.0977 43.121 16.1138C43.1049 16.1298 43.0854 16.142 43.0639 16.1495C43.0424 16.1569 43.0195 16.1594 42.9969 16.1567H41.3251" stroke="black" stroke-miterlimit="10" stroke-linecap="round"/>
<path d="M36.6109 16.1567H25.3267" stroke="black" stroke-miterlimit="10" stroke-linecap="round"/>
<path d="M33.3848 3.63477V16.1066" stroke="black" stroke-miterlimit="10" stroke-linecap="round"/>
</svg>
