<svg width="43" height="42" viewBox="0 0 43 42" fill="none" xmlns="http://www.w3.org/2000/svg">
    <path d="M4.28564 24.1948V41.2073H38.7149V24.1948" stroke="black" stroke-linecap="round" stroke-linejoin="round"/>
    <path d="M35.2246 14.761H37.7406C37.9233 14.7594 38.1011 14.818 38.2455 14.9273C38.3898 15.0366 38.4922 15.1903 38.536 15.3635L42.2208 23.1959C42.2501 23.3141 42.2517 23.4372 42.2256 23.5561C42.1994 23.675 42.1461 23.7866 42.0697 23.8826C41.9932 23.9786 41.8956 24.0566 41.784 24.1106C41.6725 24.1646 41.5499 24.1934 41.4254 24.1948H1.63945C1.51494 24.1934 1.39235 24.1646 1.28081 24.1106C1.16926 24.0566 1.07163 23.9786 0.995188 23.8826C0.918744 23.7866 0.865454 23.675 0.839288 23.5561C0.813121 23.4372 0.814751 23.3141 0.844056 23.1959L4.52884 15.3635C4.57048 15.198 4.6656 15.0501 4.8001 14.9416C4.9346 14.833 5.10131 14.7697 5.27554 14.761H7.5481" stroke="black" stroke-linecap="round" stroke-linejoin="round"/>
    <path d="M9.17139 29.094H23.456" stroke="black" stroke-miterlimit="10" stroke-linecap="round"/>
    <path d="M9.17139 34.7383H17.5149" stroke="black" stroke-miterlimit="10" stroke-linecap="round"/>
    <path d="M21.5078 15.2049V5.89795" stroke="black" stroke-linecap="round" stroke-linejoin="round"/>
    <path d="M18.6514 8.68844L21.5083 5.89795L24.3652 8.68844" stroke="black" stroke-linecap="round" stroke-linejoin="round"/>
    <path d="M21.508 20.3261C27.0305 20.3261 31.5073 15.9534 31.5073 10.5594C31.5073 5.16543 27.0305 0.792725 21.508 0.792725C15.9856 0.792725 11.5088 5.16543 11.5088 10.5594C11.5088 15.9534 15.9856 20.3261 21.508 20.3261Z" stroke="black" stroke-linecap="round" stroke-linejoin="round"/>
</svg>
