<svg width="70" height="53" viewBox="0 0 70 53" fill="none" xmlns="http://www.w3.org/2000/svg">
<path d="M45.1063 39.2117C45.1063 39.7746 44.7329 40.2004 44.1758 40.2004C43.5954 40.2004 43.2396 39.7542 43.2396 39.2117C43.2396 38.6692 43.5954 38.2229 44.1758 38.2229C44.73 38.2258 45.1063 38.6517 45.1063 39.2117ZM25.2321 38.2258C24.6517 38.2258 24.2958 38.6721 24.2958 39.2146C24.2958 39.7571 24.6517 40.2033 25.2321 40.2033C25.7863 40.2033 26.1625 39.7775 26.1625 39.2146C26.1625 38.6517 25.7892 38.2258 25.2321 38.2258ZM35.1225 38.1937C34.6442 38.1937 34.3729 38.4971 34.3029 38.9433H35.9042C35.8342 38.465 35.5571 38.1937 35.1225 38.1937ZM50.4058 38.2258C49.8254 38.2258 49.4696 38.6721 49.4696 39.2146C49.4696 39.7571 49.8254 40.2033 50.4058 40.2033C50.96 40.2033 51.3363 39.7775 51.3363 39.2146C51.3363 38.6517 50.96 38.2258 50.4058 38.2258ZM70 5.83333V46.6667C70 49.8867 67.3867 52.5 64.1667 52.5H5.83333C2.61333 52.5 0 49.8867 0 46.6667V5.83333C0 2.61333 2.61333 0 5.83333 0H64.1667C67.3867 0 70 2.61333 70 5.83333ZM16.17 23.2896C16.17 29.7092 21.3733 34.9125 27.7929 34.9125C30.0358 34.9125 32.13 34.2738 33.9062 33.1742C31.0858 30.8029 29.2921 27.2533 29.2921 23.2896C29.2921 19.3258 31.0888 15.7763 33.9062 13.405C32.13 12.3054 30.0388 11.6667 27.7929 11.6667C21.3763 11.6667 16.17 16.87 16.17 23.2896ZM23.0125 38.8179C23.0125 38.0888 22.5487 37.5988 21.7992 37.59C21.4054 37.5842 21 37.7067 20.7142 38.1383C20.5013 37.7971 20.1658 37.59 19.6933 37.59C19.3638 37.59 19.04 37.6863 18.7892 38.0479V37.6658H18.1183V40.7517H18.795V39.0396C18.795 38.5029 19.0925 38.22 19.5504 38.22C19.9967 38.22 20.2213 38.5117 20.2213 39.0337V40.7517H20.8979V39.0396C20.8979 38.5029 21.2071 38.22 21.6533 38.22C22.1112 38.22 22.33 38.5117 22.33 39.0337V40.7517H23.0125V38.8179ZM26.7954 37.6688H26.1246V38.0421C25.9117 37.765 25.5879 37.59 25.1504 37.59C24.2842 37.59 23.6075 38.2667 23.6075 39.2117C23.6075 40.1567 24.2842 40.8333 25.1504 40.8333C25.5908 40.8333 25.9117 40.6583 26.1246 40.3812V40.7546H26.7954V37.6688ZM30.1904 39.8271C30.1904 39.2846 29.785 39.0017 29.1112 38.9025L28.7963 38.8558C28.5046 38.8179 28.2742 38.7596 28.2742 38.5525C28.2742 38.325 28.4929 38.1908 28.8604 38.1908C29.2542 38.1908 29.6363 38.3396 29.8229 38.4562L30.1146 37.9137C29.7908 37.7008 29.3475 37.59 28.8546 37.59C28.0729 37.59 27.5713 37.9633 27.5713 38.5788C27.5713 39.0833 27.9446 39.3925 28.6358 39.4888L28.9508 39.5354C29.3183 39.5879 29.4933 39.6842 29.4933 39.8592C29.4933 40.0983 29.2483 40.2325 28.7904 40.2325C28.3267 40.2325 27.9913 40.0838 27.7638 39.9088L27.4488 40.4308C27.8163 40.705 28.28 40.8333 28.7846 40.8333C29.6742 40.8333 30.1904 40.4133 30.1904 39.8271ZM33.18 40.5942L32.9875 40.0196C32.7863 40.1363 32.5675 40.1946 32.3925 40.1946C32.0571 40.1946 31.9463 39.9875 31.9463 39.6783V38.2842H33.0429V37.6717H31.9463V36.7354H31.2696V37.6717H30.6425V38.2842H31.2696V39.6929C31.2696 40.4104 31.5467 40.8363 32.34 40.8363C32.6317 40.8333 32.9671 40.7429 33.18 40.5942ZM36.6012 39.2117C36.5954 38.2492 36.0004 37.59 35.1342 37.59C34.23 37.59 33.5971 38.2492 33.5971 39.2117C33.5971 40.1917 34.2563 40.8333 35.1779 40.8333C35.6417 40.8333 36.0675 40.7167 36.4438 40.4017L36.1142 39.9058C35.8546 40.1129 35.5279 40.2296 35.2158 40.2296C34.7842 40.2296 34.3904 40.0283 34.2913 39.4742H36.5838L36.6012 39.2117ZM39.2496 37.6775L38.7713 37.5929C38.3833 37.5929 38.1325 37.7738 37.9575 38.045V37.6717H37.2925V40.7575H37.9633V39.025C37.9633 38.5146 38.1821 38.2317 38.6225 38.2317L39.0425 38.3104L39.2496 37.6775ZM40.1479 39.2117C40.1479 38.6167 40.5417 38.2317 41.0783 38.2229C41.37 38.2229 41.6325 38.3192 41.8862 38.5L42.21 37.9575C41.8746 37.6921 41.5654 37.59 41.0988 37.59C40.1042 37.59 39.4538 38.2754 39.4538 39.2117C39.4538 40.1479 40.1012 40.8333 41.0958 40.8333C41.5596 40.8333 41.8717 40.7313 42.2071 40.4658L41.8833 39.9233C41.6325 40.1042 41.3671 40.2004 41.0754 40.2004C40.5417 40.1946 40.1479 39.8067 40.1479 39.2117ZM45.7363 37.6688H45.0654V38.0421C44.8525 37.765 44.5288 37.59 44.0913 37.59C43.225 37.59 42.5483 38.2667 42.5483 39.2117C42.5483 40.1538 43.225 40.8333 44.0913 40.8333C44.5317 40.8333 44.8525 40.6583 45.0654 40.3812V40.7546H45.7363V37.6688ZM48.5771 37.6775L48.0987 37.5929C47.7108 37.5929 47.46 37.7738 47.285 38.045V37.6717H46.62V40.7575H47.2908V39.025C47.2908 38.5146 47.5096 38.2317 47.95 38.2317L48.37 38.3104L48.5771 37.6775ZM51.9663 36.4292H51.2954V38.0421C51.0825 37.765 50.7588 37.59 50.3213 37.59C49.455 37.59 48.7783 38.2667 48.7783 39.2117C48.7783 40.1538 49.455 40.8333 50.3213 40.8333C50.7617 40.8333 51.0825 40.6583 51.2954 40.3812V40.7546H51.9663V36.4292ZM53.83 23.2896C53.83 16.87 48.6237 11.6667 42.2071 11.6667C35.7904 11.6667 30.5842 16.87 30.5842 23.2896C30.5842 29.7092 35.7875 34.9125 42.2071 34.9125C48.6267 34.9125 53.83 29.7092 53.83 23.2896Z" fill="black"/>
</svg>
