<svg width="80" height="80" viewBox="0 0 80 80" fill="none" xmlns="http://www.w3.org/2000/svg">
<path d="M25.4507 54.0845C25.4507 58.7521 33.649 62.5352 43.7605 62.5352C53.8743 62.5352 62.0704 58.7521 62.0704 54.0845V38.5916C62.0704 43.2592 53.8743 47.0423 43.7605 47.0423C33.6484 47.0423 25.4507 43.2592 25.4507 38.5916V54.0845Z" stroke="#1F2325" stroke-width="2" stroke-miterlimit="10" stroke-linecap="round" stroke-linejoin="round"/>
<path d="M57.845 33.1927V37.1826C57.845 40.2936 51.5408 42.817 43.7605 42.817C35.9825 42.817 29.676 40.2936 29.676 37.1826V33.1939C27.0388 34.6575 25.4507 36.5381 25.4507 38.5916C25.4507 43.2592 33.649 47.0423 43.7605 47.0423C53.8743 47.0423 62.0704 43.2592 62.0704 38.5916C62.0704 36.5381 60.4833 34.6575 57.845 33.1927Z" stroke="#1F2325" stroke-width="2" stroke-miterlimit="10" stroke-linecap="round" stroke-linejoin="round"/>
<path d="M38.7719 26.2863C38.089 25.7336 37.4226 25.1472 36.7899 24.5066C36.0271 25.2773 35.3983 26.1798 34.9172 27.168C31.7217 28.2001 29.6761 29.7781 29.6761 31.5494C29.6761 34.6621 35.9826 37.1832 43.7606 37.1832C51.5409 37.1832 57.8451 34.6621 57.8451 31.5494C57.8451 28.4384 51.5409 25.9162 43.7606 25.9162C42.0012 25.9156 40.324 26.0508 38.7719 26.2863Z" stroke="#1F2325" stroke-width="2" stroke-miterlimit="10" stroke-linecap="round" stroke-linejoin="round"/>
<path d="M53.6203 31.5494C47.5285 31.5494 41.4378 29.2018 36.7899 24.5066C35.0062 26.3088 33.902 28.799 33.902 31.5494C33.902 28.799 35.0062 26.3088 36.7899 24.5066C41.4378 29.2018 47.5285 31.5494 53.6203 31.5494Z" stroke="#1F2325" stroke-width="2" stroke-miterlimit="10" stroke-linecap="round" stroke-linejoin="round"/>
<path d="M29.6761 37.1826C29.6761 40.2935 35.9826 42.8169 43.7606 42.8169C51.5409 42.8169 57.8451 40.2935 57.8451 37.1826V31.5493C57.8451 34.662 51.5409 37.1831 43.7606 37.1831C35.9826 37.1831 29.6761 34.662 29.6761 31.5493V37.1826Z" stroke="#1F2325" stroke-width="2" stroke-miterlimit="10" stroke-linecap="round" stroke-linejoin="round"/>
<path d="M25.4507 38.5916C25.4507 36.8068 26.653 35.1527 28.6986 33.7899C21.858 32.5651 17 29.5065 17 25.9155V31.5499C17 34.5409 20.3775 37.1629 25.4586 38.6648C25.458 38.64 25.4507 38.6169 25.4507 38.5916Z" stroke="#1F2325" stroke-width="2" stroke-miterlimit="10" stroke-linecap="round" stroke-linejoin="round"/>
<path d="M29.6761 33.1939V31.5494C29.6761 29.7781 31.7217 28.2006 34.9166 27.1679C35.3977 26.1798 36.027 25.2778 36.7893 24.5065C37.422 25.1471 38.0885 25.7336 38.7713 26.2863C40.3239 26.0508 42.0011 25.9155 43.7606 25.9155C47.4535 25.9155 50.8039 26.4879 53.3155 27.4175C53.5054 26.9296 53.6208 26.4294 53.6208 25.9155C53.6208 21.2479 45.4242 17.4648 35.311 17.4648C25.1989 17.4648 17 21.2485 17 25.9155C17 29.506 21.858 32.5651 28.698 33.7899C29.0068 33.5843 29.3307 33.3837 29.6761 33.1939Z" stroke="#1F2325" stroke-width="2" stroke-miterlimit="10" stroke-linecap="round" stroke-linejoin="round"/>
<circle cx="40" cy="40" r="39" stroke="#1F2325" stroke-width="2"/>
</svg>
