<svg width="21" height="21" viewBox="0 0 21 21" fill="none" xmlns="http://www.w3.org/2000/svg">
<path d="M18.5255 21L12.0619 14.5364C10.8474 15.3011 9.41588 15.75 7.875 15.75C3.52537 15.75 0 12.2246 0 7.875C0 3.52537 3.52537 0 7.875 0C12.2246 0 15.75 3.52537 15.75 7.875C15.75 9.41588 15.3003 10.8482 14.5364 12.0619L21 18.5255L18.5255 21ZM7.875 14C11.2516 14 14 11.2525 14 7.875C14 4.4975 11.2516 1.75 7.875 1.75C4.49837 1.75 1.75 4.4975 1.75 7.875C1.75 11.2525 4.49837 14 7.875 14Z" fill="#1F2325"/>
</svg>
