<svg width="44" height="44" viewBox="0 0 44 44" fill="none" xmlns="http://www.w3.org/2000/svg">
<path d="M9.68506 33.2403V10.9585C9.68506 8.27193 10.76 5.69542 12.6733 3.79575C14.5867 1.89608 17.1818 0.828857 19.8877 0.828857H24.1291C26.835 0.828857 29.4301 1.89608 31.3434 3.79575C33.2568 5.69542 34.3317 8.27193 34.3317 10.9585V32.0632C34.3339 33.286 34.0932 34.4972 33.6235 35.6275C33.1537 36.7579 32.464 37.7851 31.5939 38.6505C30.7238 39.5159 29.6904 40.2025 28.5527 40.6709C27.4151 41.1394 26.1956 41.3805 24.964 41.3805V41.3805" stroke="black" stroke-miterlimit="10" stroke-linecap="round"/>
<path d="M9.68506 15.3684H8.39929C6.3931 15.3684 4.46909 16.1597 3.0505 17.5681C1.63191 18.9765 0.834961 20.8868 0.834961 22.8786V25.7467C0.834961 26.733 1.03062 27.7095 1.41076 28.6207C1.7909 29.5319 2.34809 30.3598 3.0505 31.0572C3.75291 31.7546 4.5868 32.3078 5.50455 32.6852C6.42229 33.0626 7.40593 33.2569 8.39929 33.2569H9.68506" stroke="black" stroke-miterlimit="10" stroke-linecap="round"/>
<path d="M34.3315 15.3684H35.6173C37.6235 15.3684 39.5475 16.1597 40.9661 17.5681C42.3847 18.9765 43.1816 20.8868 43.1816 22.8786V25.7467C43.1816 27.7385 42.3847 29.6488 40.9661 31.0572C39.5475 32.4656 37.6235 33.2569 35.6173 33.2569H34.3315" stroke="black" stroke-miterlimit="10" stroke-linecap="round"/>
<path d="M5.25977 20.6902V27.9019" stroke="black" stroke-miterlimit="10" stroke-linecap="round"/>
<path d="M38.7402 20.6902V27.9019" stroke="black" stroke-miterlimit="10" stroke-linecap="round"/>
<path d="M9.68506 14.6059C9.68506 11.9194 10.76 9.34289 12.6733 7.44322C14.5867 5.54354 17.1818 4.47632 19.8877 4.47632H24.1291C26.835 4.47632 29.4301 5.54354 31.3434 7.44322C33.2568 9.34289 34.3317 11.9194 34.3317 14.6059" stroke="black" stroke-miterlimit="10" stroke-linecap="round"/>
<path d="M23.1107 39.5898H15.4963C14.5003 39.5898 13.6929 40.3915 13.6929 41.3803C13.6929 42.3692 14.5003 43.1709 15.4963 43.1709H23.1107C24.1067 43.1709 24.9141 42.3692 24.9141 41.3803C24.9141 40.3915 24.1067 39.5898 23.1107 39.5898Z" stroke="black" stroke-miterlimit="10" stroke-linecap="round"/>
</svg>
